<svg width="40" height="40" viewBox="0 0 40 40" fill="none" xmlns="http://www.w3.org/2000/svg">
<path d="M35.0753 4.7963C35.6058 4.52465 36.2506 4.68682 36.5997 5.1752H36.6114L36.6661 5.26602C37.0227 5.8572 36.8517 6.64139 36.2745 7.00919L36.2735 7.00821L30.9805 10.4428C34.5208 11.6563 36.8496 13.6807 36.8497 16.7592V27.5805C36.8497 29.1872 35.9177 30.5202 34.6768 31.5268L34.6778 31.5277C33.4293 32.542 31.7058 33.369 29.7266 33.9887C26.9847 34.8474 23.6121 35.3432 19.9962 35.3432C16.3803 35.3431 13.0085 34.8474 10.2667 33.9887C8.28062 33.3689 6.5639 32.5419 5.31549 31.5277C4.07454 30.5211 3.14362 29.1873 3.14362 27.5805V16.7592C3.14368 13.9433 5.09333 11.9996 8.14166 10.769C11.1897 9.5385 15.3837 8.99652 19.9962 8.99649C22.7535 8.99649 25.3555 9.18982 27.6553 9.6088L34.9649 4.86075L35.0753 4.7963ZM11.8516 31.8109C13.8589 32.3469 16.2127 32.6976 18.7676 32.7816V24.5004C16.2744 24.4186 13.9276 24.1024 11.8516 23.5912V31.8109ZM28.1417 23.5912C26.066 24.1027 23.7193 24.4244 21.2256 24.5004V32.7816C23.7807 32.6975 26.1344 32.346 28.1417 31.81V23.5912ZM5.60162 27.5805C5.60162 28.0979 5.90156 28.7736 6.83405 29.5316L6.83502 29.5326C7.46881 30.0508 8.32769 30.544 9.39362 30.9867V22.8481C7.90183 22.3046 6.61179 21.636 5.60162 20.8744V27.5805ZM34.3917 20.8744C33.3815 21.6361 32.0914 22.3046 30.5997 22.8481V30.9867C31.6611 30.544 32.5249 30.0505 33.1583 29.5326L33.3272 29.39C34.1334 28.6844 34.3917 28.0657 34.3917 27.5805V20.8744ZM19.9962 11.5365C15.5145 11.5366 11.6692 12.07 9.03912 13.1322C7.71096 13.6702 6.85156 14.2612 6.32526 14.8725C5.80293 15.4792 5.60165 16.1133 5.60162 16.7592C5.60162 17.4005 6.24472 18.7263 9.11725 20.0102V20.0111L9.62994 20.2299C12.2589 21.3013 15.8949 21.9828 19.9962 21.9828C24.3712 21.9828 28.2176 21.2082 30.876 20.0111L30.9522 20.182L30.876 20.0102C33.7486 18.7263 34.3917 17.4005 34.3917 16.7592C34.3916 16.1133 34.1903 15.4791 33.668 14.8725C33.1418 14.2613 32.2822 13.6701 30.9542 13.1322C30.1328 12.8 29.1856 12.518 28.1426 12.2924L19.6104 17.8363C19.0308 18.2136 18.2667 18.0263 17.9141 17.4291C17.5673 16.8409 17.7283 16.058 18.3057 15.6889L24.3936 11.726C23.0201 11.5995 21.5466 11.5365 19.9962 11.5365Z" fill="#0C1524" stroke="#0C1524" stroke-width="0.375"/>
<rect x="6.79928" y="6.55437" width="22.8543" height="2.45804" rx="1.22902" transform="rotate(25.0873 6.79928 6.55437)" fill="#0C1524" stroke="#0C1524" stroke-width="0.375"/>
</svg>
